HIERARCHY
ROOT Hips
{
	OFFSET 0.000000 0.000000 0.000000
	CHANNELS 6 Xposition Yposition Zposition Zrotation Yrotation Xrotation 
	JOINT LHipJoint
	{
		OFFSET 0.000000 0.000000 0.000000
		CHANNELS 3 Zrotation Yrotation Xrotation
		JOINT LeftUpLeg
		{
			OFFSET 1.363060 -1.794630 0.839290
			CHANNELS 3 Zrotation Yrotation Xrotation
			JOINT LeftLeg
			{
				OFFSET 2.448110 -6.726130 0.000000
				CHANNELS 3 Zrotation Yrotation Xrotation
				JOINT LeftFoot
				{
					OFFSET 2.562200 -7.039590 0.000000
					CHANNELS 3 Zrotation Yrotation Xrotation
					JOINT LeftToeBase
					{
						OFFSET 0.157640 -0.433110 2.322550
						CHANNELS 3 Zrotation Yrotation Xrotation
						End Site
						{
							OFFSET 0.000000 0.000000 0.000000
						}
					}
				}
			}
		}
	}
	JOINT RHipJoint
	{
		OFFSET 0.000000 0.000000 0.000000
		CHANNELS 3 Zrotation Yrotation Xrotation
		JOINT RightUpLeg
		{
			OFFSET -1.305520 -1.794630 0.839290
			CHANNELS 3 Zrotation Yrotation Xrotation
			JOINT RightLeg
			{
				OFFSET -2.542530 -6.985550 0.000000
				CHANNELS 3 Zrotation Yrotation Xrotation
				JOINT RightFoot
				{
					OFFSET -2.568260 -7.056230 0.000000
					CHANNELS 3 Zrotation Yrotation Xrotation
					JOINT RightToeBase
					{
						OFFSET -0.164730 -0.452590 2.363150
						CHANNELS 3 Zrotation Yrotation Xrotation
						End Site
						{
							OFFSET 0.000000 0.000000 0.000000
						}
					}
				}
			}
		}
	}
	JOINT LowerBack
	{
		OFFSET 0.000000 0.000000 0.000000
		CHANNELS 3 Zrotation Yrotation Xrotation
		JOINT Spine
		{
			OFFSET 0.028270 2.035590 -0.193380
			CHANNELS 3 Zrotation Yrotation Xrotation
			JOINT Spine1
			{
				OFFSET 0.056720 2.048850 -0.042750
				CHANNELS 3 Zrotation Yrotation Xrotation
				JOINT Neck
				{
					OFFSET 0.000000 0.000000 0.000000
					CHANNELS 3 Zrotation Yrotation Xrotation
					JOINT Neck1
					{
						OFFSET -0.054170 1.746240 0.172020
						CHANNELS 3 Zrotation Yrotation Xrotation
						JOINT Head
						{
							OFFSET 0.104070 1.761360 -0.123970
							CHANNELS 3 Zrotation Yrotation Xrotation
							End Site
							{
								OFFSET 0.000000 0.000000 0.000000
							}
						}
					}
				}
				JOINT LeftShoulder
				{
					OFFSET 0.000000 0.000000 0.000000
					CHANNELS 3 Zrotation Yrotation Xrotation
					JOINT LeftArm
					{
						OFFSET 3.362410 1.200890 -0.311210
						CHANNELS 3 Zrotation Yrotation Xrotation
						JOINT LeftForeArm
						{
							OFFSET 4.983000 -0.000000 -0.000000
							CHANNELS 3 Zrotation Yrotation Xrotation
							JOINT LeftHand
							{
								OFFSET 3.483560 -0.000000 -0.000000
								CHANNELS 3 Zrotation Yrotation Xrotation
								JOINT LeftFingerBase
								{
									OFFSET 0.000000 0.000000 0.000000
									CHANNELS 3 Zrotation Yrotation Xrotation
									JOINT LeftHandIndex1
									{
										OFFSET 0.715260 -0.000000 -0.000000
										CHANNELS 3 Zrotation Yrotation Xrotation
										End Site
										{
											OFFSET 0.000000 0.000000 0.000000
										}
									}
								}
								JOINT LThumb
								{
									OFFSET 0.000000 0.000000 0.000000
									CHANNELS 3 Zrotation Yrotation Xrotation
									End Site
									{
										OFFSET 0.000000 0.000000 0.000000
									}
								}
							}
						}
					}
				}
				JOINT RightShoulder
				{
					OFFSET 0.000000 0.000000 0.000000
					CHANNELS 3 Zrotation Yrotation Xrotation
					JOINT RightArm
					{
						OFFSET -3.136600 1.374050 -0.404650
						CHANNELS 3 Zrotation Yrotation Xrotation
						JOINT RightForeArm
						{
							OFFSET -5.241900 -0.000000 -0.000000
							CHANNELS 3 Zrotation Yrotation Xrotation
							JOINT RightHand
							{
								OFFSET -3.444170 -0.000000 -0.000000
								CHANNELS 3 Zrotation Yrotation Xrotation
								JOINT RightFingerBase
								{
									OFFSET 0.000000 0.000000 0.000000
									CHANNELS 3 Zrotation Yrotation Xrotation
									JOINT RightHandIndex1
									{
										OFFSET -0.622530 -0.000000 -0.000000
										CHANNELS 3 Zrotation Yrotation Xrotation
										End Site
										{
											OFFSET 0.000000 0.000000 0.000000
										}
									}
								}
								JOINT RThumb
								{
									OFFSET 0.000000 0.000000 0.000000
									CHANNELS 3 Zrotation Yrotation Xrotation
									End Site
									{
										OFFSET 0.000000 0.000000 0.000000
									}
								}
							}
						}
					}
				}
			}
		}
	}
}
MOTION
Frames: 11
Frame Time: 0.008333
-0.860232 17.901890 13.240939 177.514341 -5.197742 -169.829861 -2.854769 1.914103 2.012129 -18.994443 -8.073059 -12.573996 -0.631770 5.792233 19.125158 -0.249943 2.198752 -1.222667 0.612400 -5.008800 -13.933700 2.049671 -2.241048 1.672655 16.742172 8.189998 -18.191713 -1.631045 -9.780867 29.904481 -0.400402 -2.336967 -13.831474 -0.305400 -3.553200 9.822900 -4.506567 -0.531238 -4.488290 1.074850 -1.204053 -2.294317 5.332210 -0.284656 1.822818 -8.438065 6.152367 -14.369040 3.480455 7.731312 28.410079 3.780800 0.990700 15.098600 -9.756173 -1.777358 -0.007173 -76.710520 -36.770211 64.163830 152.265000 -39.270685 -110.341077 0.000591 -0.071693 -52.795707 19.889000 24.307430 8.508100 -7.125000 0.000000 0.000000 -10.186900 55.392600 -2.618600 9.369677 1.982249 -1.948333 72.500434 -2.415488 15.346975 -16.540173 23.950472 -4.426196 0.698860 -0.522764 18.554381 -19.637065 2.455783 -1.019300 7.125000 0.000000 0.000000 4.691900 -27.056200 2.050600 
-0.861949 17.900577 13.236493 177.639168 -5.242220 -169.861658 -2.852693 1.915568 2.018526 -18.863535 -7.984428 -12.615308 -0.623474 5.815125 19.185576 -0.207487 2.036279 -1.250133 0.634100 -5.094800 -14.179000 2.053468 -2.243631 1.675744 16.887560 8.184002 -18.123092 -1.626363 -9.766364 29.876496 -0.412972 -2.298877 -13.872137 -0.316400 -3.615800 9.998200 -4.396882 -0.533333 -4.478891 1.109230 -1.212654 -2.290021 5.324860 -0.289431 1.827823 -8.475751 6.110852 -14.452226 3.531234 7.693310 28.403599 3.808600 0.980100 15.117700 -9.752524 -1.773090 0.000448 -76.751758 -36.866354 64.251162 152.176830 -39.311536 -110.329578 -0.007041 -0.148870 -52.441354 16.613616 24.011741 6.995800 -7.125000 0.000000 0.000000 -13.351600 54.502600 -3.159700 9.370357 1.986448 -1.950288 72.502210 -2.452526 15.274781 -16.568817 23.988420 -4.441561 0.695909 -0.527201 18.546702 -19.665178 2.546141 -1.056300 7.125000 0.000000 0.000000 4.668600 -26.954200 2.051600 
-0.863768 17.900577 13.235584 177.599245 -5.171074 -169.863832 -2.851043 1.914341 2.021267 -18.928670 -7.892274 -12.627647 -0.621567 5.816319 19.195291 -0.177547 1.913913 -1.256284 0.633000 -5.090600 -14.167200 2.050980 -2.243457 1.674505 16.831059 8.194735 -18.118853 -1.629332 -9.769986 29.885049 -0.418495 -2.235542 -13.756811 -0.323700 -3.657000 10.113700 -4.459321 -0.512603 -4.475897 1.092677 -1.181455 -2.290771 5.335797 -0.274482 1.818757 -8.481382 6.062095 -14.453157 3.539052 7.627657 28.359867 3.804600 0.959600 15.103100 -9.750549 -1.774069 0.004714 -76.742926 -36.994670 64.385362 152.185584 -39.288296 -110.343772 -0.009019 -0.159043 -52.474224 16.140594 23.981611 6.785900 -7.125000 0.000000 0.000000 -13.806900 54.388100 -3.231700 9.366295 1.989311 -1.952238 72.532541 -2.502967 15.248183 -16.593043 24.016805 -4.451902 0.700747 -0.519035 18.512591 -19.652570 2.431976 -1.009900 7.125000 0.000000 0.000000 4.680600 -27.085200 2.042500 
-0.867203 17.901688 13.236695 177.573849 -5.043524 -169.800263 -2.851745 1.905760 2.014291 -18.983443 -7.870390 -12.711069 -0.619099 5.824161 19.212792 -0.194421 1.984640 -1.280474 0.630400 -5.080500 -14.138400 2.049403 -2.238324 1.668875 16.763898 8.272878 -18.168196 -1.628465 -9.768734 29.876433 -0.429793 -2.161437 -13.677035 -0.345900 -3.778800 10.455200 -4.486370 -0.484768 -4.509284 1.080576 -1.143412 -2.307047 5.332482 -0.254410 1.808282 -8.493834 6.020049 -14.534659 3.533874 7.582925 28.368691 3.802000 0.938700 15.134500 -9.749245 -1.775099 0.005127 -76.753665 -37.057126 64.508621 152.268422 -39.221266 -110.378186 -0.003192 -0.133723 -52.920294 17.311015 23.836518 7.245300 -7.125000 0.000000 0.000000 -12.575400 54.453500 -2.956300 9.367044 1.991772 -1.953715 72.537623 -2.506124 15.269759 -16.587056 24.007364 -4.447158 0.703841 -0.509349 18.530466 -19.589655 2.288613 -0.949400 7.125000 0.000000 0.000000 4.733700 -27.249600 2.047400 
-0.868921 17.903608 13.238009 177.584499 -4.966303 -169.755643 -2.853749 1.898669 2.010627 -18.979366 -7.838381 -12.777775 -0.621413 5.821670 19.200498 -0.199356 2.005365 -1.265616 0.614600 -5.017300 -13.957800 2.046462 -2.233823 1.662089 16.763479 8.309735 -18.224629 -1.629522 -9.773028 29.888282 -0.393936 -2.292735 -13.640325 -0.316300 -3.615100 9.996100 -4.538812 -0.479634 -4.513095 1.106592 -1.137111 -2.309536 5.408067 -0.251925 1.814687 -8.509926 5.997932 -14.669749 3.487964 7.583574 28.401482 3.788500 0.928700 15.188100 -9.737991 -1.778769 0.007726 -76.838145 -37.200448 64.389013 152.246137 -39.280900 -110.328601 0.010557 -0.076349 -53.760429 20.188804 23.587990 8.411000 -7.125000 0.000000 0.000000 -9.574300 54.731600 -2.304500 9.372656 1.991306 -1.954425 72.499964 -2.428568 15.210038 -16.566555 23.980325 -4.437096 0.694136 -0.509636 18.633417 -19.475394 2.335652 -0.961200 7.125000 0.000000 0.000000 4.826300 -27.199500 2.093400 
-0.871851 17.901992 13.236796 177.591414 -5.008095 -169.755227 -2.852323 1.886311 2.006700 -18.987616 -7.774621 -12.790577 -0.619059 5.821280 19.208521 -0.191655 1.970199 -1.249049 0.623500 -5.053000 -14.059800 2.044676 -2.242720 1.665985 16.771531 8.251012 -18.251306 -1.628929 -9.779064 29.893862 -0.382028 -2.342956 -13.642041 -0.292900 -3.480200 9.618500 -4.563540 -0.468100 -4.491980 1.128551 -1.135483 -2.322531 5.449190 -0.224626 1.749887 -7.323321 2.552926 -14.718698 1.816281 9.124006 28.531408 3.757300 3.787400 15.408300 -9.723480 -1.914901 0.066596 -76.945466 -37.325641 64.015539 152.128209 -39.443310 -110.216199 0.023335 0.004189 -55.078869 24.393091 23.238562 10.145300 -7.125000 0.000000 0.000000 -5.122400 55.170300 -1.281600 9.372878 1.861252 -1.969564 72.479449 -2.449560 15.174028 -16.554257 23.959454 -4.429958 0.685483 -0.511304 18.691647 -19.389786 2.399329 -0.981000 7.125000 0.000000 0.000000 4.895200 -27.129700 2.131600 
-0.875892 17.901082 13.233361 177.610310 -5.089021 -169.777779 -2.849549 1.889667 2.009210 -18.981985 -7.756769 -12.763911 -0.613731 5.832000 19.242255 -0.179689 1.925068 -1.282586 0.623200 -5.051600 -14.055800 2.046147 -2.245587 1.670502 16.788034 8.204295 -18.213804 -1.628556 -9.776908 29.889177 -0.398464 -2.287529 -13.672097 -0.300900 -3.527200 9.750000 -4.511262 -0.495854 -4.495028 1.117613 -1.171348 -2.300663 5.398179 -0.244038 1.790009 -7.265515 2.534848 -14.824609 1.783681 9.082779 28.553002 3.731600 3.767300 15.452600 -9.712597 -1.918349 0.069257 -76.953287 -37.482945 63.909435 152.051591 -39.538529 -110.150663 0.030450 0.044374 -55.547994 26.467651 23.024317 10.999100 -7.125000 0.000000 0.000000 -2.882600 55.354100 -0.733100 9.370474 1.860488 -1.969142 72.549766 -2.410321 15.092775 -16.550132 23.950543 -4.428145 0.690583 -0.517584 18.812648 -19.506262 2.375888 -0.980000 7.125000 0.000000 0.000000 4.801000 -27.149600 2.088100 
-0.878216 17.901587 13.233664 177.631395 -5.118412 -169.806335 -2.847859 1.889504 2.010512 -18.966084 -7.709094 -12.775939 -0.608403 5.844136 19.278501 -0.151028 1.812748 -1.311829 0.621400 -5.044800 -14.036300 2.047586 -2.247991 1.670951 16.809498 8.241288 -18.163641 -1.627307 -9.772592 29.881671 -0.398988 -2.289536 -13.685652 -0.311300 -3.586800 9.917100 -4.498438 -0.505863 -4.454843 1.116776 -1.183779 -2.271598 5.386794 -0.251265 1.818294 -7.175950 2.551712 -14.899583 1.684915 9.068215 28.495170 3.669400 3.754400 15.450200 -9.707122 -1.928019 0.076514 -76.945755 -37.602423 63.986125 152.033545 -39.542368 -110.148088 0.029120 0.027837 -55.149196 25.595604 23.210480 10.679700 -7.125000 0.000000 0.000000 -3.859600 55.379400 -0.984500 9.373242 1.857315 -1.968356 72.572543 -2.334030 15.108346 -16.543197 23.935103 -4.422929 0.702904 -0.514883 18.813284 -19.607174 2.224176 -0.927100 7.125000 0.000000 0.000000 4.720700 -27.315800 2.034400 
-0.879732 17.901385 13.235180 177.751931 -5.119262 -169.830598 -2.849677 1.892731 2.014613 -18.825886 -7.734838 -12.773446 -0.610220 5.843927 19.270081 -0.156380 1.835188 -1.263715 0.634900 -5.098200 -14.188800 2.050155 -2.249171 1.668403 16.944399 8.294198 -18.137379 -1.627925 -9.770707 29.889788 -0.375095 -2.407264 -13.752744 -0.295800 -3.497400 9.666800 -4.405408 -0.498535 -4.429903 1.153662 -1.180026 -2.266015 5.395361 -0.249300 1.817301 -7.192603 2.555039 -14.880509 1.641481 9.053368 28.405281 3.645400 3.739900 15.401800 -9.708148 -1.929734 0.083440 -77.000767 -37.646433 64.010210 152.022027 -39.520859 -110.170612 0.015547 -0.020006 -54.977442 23.366017 23.604792 9.828000 -7.125000 0.000000 0.000000 -6.313200 55.352400 -1.609100 9.379754 1.857054 -1.966542 72.491081 -2.296488 15.222108 -16.501504 23.885433 -4.403844 0.711768 -0.518848 18.714961 -19.716244 2.214882 -0.930400 7.125000 0.000000 0.000000 4.630300 -27.321400 1.994600 
-0.881652 17.901385 13.235078 177.741976 -5.101996 -169.855633 -2.851469 1.895053 2.016659 -18.840481 -7.736975 -12.740696 -0.611951 5.838134 19.256511 -0.154033 1.821711 -1.237462 0.622600 -5.049400 -14.049500 2.048730 -2.252382 1.668763 16.929004 8.324649 -18.102700 -1.629368 -9.772865 29.898308 -0.365332 -2.448391 -13.758143 -0.300200 -3.522700 9.737600 -4.457211 -0.505761 -4.380046 1.171019 -1.189537 -2.257230 5.451887 -0.255088 1.812408 -7.239360 2.569484 -14.904656 1.606585 9.067578 28.329349 3.635800 3.732200 15.368400 -9.707633 -1.931953 0.089941 -77.093418 -37.708128 63.968392 152.009023 -39.509961 -110.186659 0.002011 -0.050134 -54.834331 21.899930 24.048175 9.330900 -7.125000 0.000000 0.000000 -7.993100 55.519800 -2.073400 9.385840 1.856528 -1.965809 72.402349 -2.232402 15.301092 -16.468920 23.846889 -4.389036 0.707842 -0.522672 18.634350 -19.688503 2.312072 -0.967400 7.125000 0.000000 0.000000 4.650400 -27.212000 2.015300 
-0.884784 17.903406 13.232957 177.592686 -5.043751 -169.824337 -2.851442 1.889324 2.012869 -19.024028 -7.680083 -12.752198 -0.612256 5.831984 19.249196 -0.141744 1.768752 -1.275336 0.591200 -4.922600 -13.688000 2.041459 -2.249710 1.668386 16.751010 8.265772 -18.165903 -1.630781 -9.781408 29.905085 -0.355454 -2.444619 -13.626883 -0.280300 -3.405100 9.408700 -4.652068 -0.532780 -4.383624 1.155293 -1.219474 -2.275565 5.536180 -0.270604 1.790974 -7.271143 2.571658 -14.897406 1.626759 9.076316 28.332250 3.650200 3.733900 15.366000 -9.708550 -1.932378 0.085754 -77.053947 -37.710050 63.939561 152.026746 -39.493258 -110.194081 0.001596 -0.038521 -54.458372 22.198147 24.290415 9.550200 -7.125000 0.000000 0.000000 -7.786200 55.823100 -2.076700 9.385075 1.857341 -1.967512 72.386248 -2.257164 15.351965 -16.477938 23.858203 -4.392100 0.705813 -0.515891 18.620903 -19.606671 2.264041 -0.943000 7.125000 0.000000 0.000000 4.718000 -27.270500 2.038300 
